                  Orgazmo 1997 DVDRip Xvid fasamoo LKRG

RIPPER                           : fasamoo
Format                           : AVI
Format/Info                      : Audio Video Interleave
File size                        : 700 MiB
Duration                         : 1h 32mn
Overall bit rate                 : 1 057 Kbps
Writing application              : VirtualDubMod 1.5.4.1 (build 2178/release)
Writing library                  : VirtualDubMod build 2178/release
Language                         : English
Subtitles                        : English(*.srt) | English|French|Spanish(*.idx,*.sub)
Genre                            : Comedy | Sci-Fi

Video
ID                               : 0
Format                           : MPEG-4 Visual
Format profile                   : Advanced Simple@L5
Format settings, BVOP            : Yes
Format settings, QPel            : No
Format settings, GMC             : No warppoints
Format settings, Matrix          : Custom
Codec ID                         : XVID
Codec ID/Hint                    : XviD
Duration                         : 1h 32mn
Bit rate                         : 930 Kbps
Width                            : 608 pixels
Height                           : 304 pixels
Display aspect ratio             : 2.000
Frame rate                       : 23.976 fps
Color space                      : YUV
Chroma subsampling               : 4:2:0
Bit depth                        : 8 bits
Scan type                        : Progressive
Bits/(Pixel*Frame)               : 0.210
Stream size                      : 616 MiB (88%)
Writing library                  : XviD 1.2.1 (UTC 2008-12-04)

Audio
ID                               : 1
Format                           : MPEG Audio
Format version                   : Version 1
Format profile                   : Layer 3
Mode                             : Joint stereo
Mode extension                   : MS Stereo
Codec ID                         : 55
Codec ID/Hint                    : MP3
Duration                         : 1h 32mn
Bit rate mode                    : Variable
Bit rate                         : 114 Kbps
Nominal bit rate                 : 128 Kbps
Channel(s)                       : 2 channels
Sampling rate                    : 48.0 KHz
Stream size                      : 75.5 MiB (11%)
Alignment                        : Aligned on interleaves
Interleave, duration             : 24 ms (0.58 video frame)
Interleave, preload duration     : 161 ms
Writing library                  : LAME3.98r
Encoding settings                : -m j -V 4 -q 2 -lowpass 17 --abr 128

                                 PLOT

Joe Young was a simple young man trying to spread the word of the Book of Mormon when he picked the wrong house to preach at! The owner, a porn director named Maxxx Orbison, tells his henchmen to kill the guy at the door who interrupted their scene, but Joe fights off the guards with great skill, which impresses Maxxx so much that he offers Joe the lead role in the movie he's making at the moment: Orgazmo, which is about a sex superhero who fights crime with his Orgazmorator and ChodaBoy, his sidekick. Joe, against his beliefs, takes the job so that he can pay for the wedding he plans for he and his fiancee, who he doesn't tell about his risque new acting job. However, when the movie becomes an amazing hit just about everywhere and he finds out that Ben (ChodaBoy) has created a real Orgazmorator, Joe is in some serious hot water!



                                 IMBD
                     
                    http://www.imdb.com/title/tt0124819/
 
http://leetleech.org/images/45679875090572421478.png 
http://leetleech.org/images/61560711531172335045.png 
http://leetleech.org/images/60349648737973629890.png 
http://leetleech.org/images/86125279188802117705.png 
http://leetleech.org/images/38253064894145430107.png 
http://leetleech.org/images/12870944713869906181.png
